<svg width="60" height="60" viewBox="0 0 60 60" fill="none" xmlns="http://www.w3.org/2000/svg">
<path d="M44.1174 0.134636C42.9107 0.523468 42.5084 0.9123 41.6771 2.57489C41.0604 3.79501 40.4972 5.49782 39.8402 8.166C39.505 9.5068 39.2369 10.6465 39.2369 10.6867C39.2369 10.7403 39.6391 10.8208 40.1486 10.8744C40.6447 10.928 42.1196 11.1426 43.4336 11.3571C44.7341 11.5716 45.9006 11.7459 45.9945 11.7459C46.0883 11.7459 46.209 11.5448 46.2626 11.3035C46.3163 11.0755 46.4772 10.4051 46.6381 9.81518L46.9196 8.76936L49.0381 10.8878C51.4783 13.3147 51.4649 13.0197 49.1856 13.5694C47.3621 14.0119 46.1018 14.0119 43.7956 13.5694C42.8034 13.3817 41.2883 13.1269 40.4436 13.0197C38.2849 12.7247 33.6458 12.6174 31.6614 12.8052C23.7239 13.5828 18.1596 16.9482 15.1696 22.7673C13.44 26.1193 12.6891 29.7126 12.6891 34.6065V36.7786L14.1372 36.859C14.9283 36.9127 16.4165 37.1004 17.449 37.2881C18.4814 37.4758 19.4333 37.6233 19.5674 37.6233C19.7953 37.6233 19.8088 37.516 19.7149 36.0948C19.6747 35.2635 19.6747 33.9227 19.7283 33.1316L19.8222 31.6836L24.0323 35.8937L28.2424 40.1038L27.2099 40.211C25.0647 40.439 21.3641 40.144 17.1808 39.4065C14.4724 38.9373 12.2601 38.9104 10.2087 39.3529C6.78963 40.0769 2.67339 41.4311 1.49349 42.2088C-0.142285 43.2948 -0.490892 45.5876 0.729232 47.1966C1.74824 48.5508 3.26334 48.8457 5.40861 48.0949L6.49465 47.7195L9.39077 50.6156L12.2869 53.5117L11.8712 54.5843C11.2813 56.0592 11.2679 57.1185 11.8176 58.124C12.8768 60.0548 15.116 60.5777 16.9394 59.3308C17.6769 58.8213 18.0657 58.1375 18.8836 55.8983C19.4601 54.3162 20.3853 50.991 20.64 49.61L20.7205 49.1944L19.8624 49.1005C19.3931 49.0469 17.9182 48.8323 16.5774 48.6178C15.25 48.3899 14.0701 48.2156 13.9763 48.2156C13.869 48.2156 13.7484 48.4033 13.6947 48.6446C13.6411 48.886 13.4802 49.5564 13.3327 50.1463L13.0511 51.1921L10.9327 49.0737C9.52485 47.6658 8.86786 46.915 8.97512 46.8614C9.48463 46.5664 11.5897 46.1642 12.8902 46.1105C14.0701 46.0569 14.6199 46.0971 15.6389 46.3116C18.4814 46.9284 20.573 47.1697 23.9518 47.2368C26.5932 47.2904 27.5988 47.2636 29.0468 47.0759C37.8559 45.963 43.5811 41.6189 46.0749 34.164C46.9062 31.6836 47.1744 29.9003 47.2414 26.2802L47.3085 23.1829L45.8604 23.1025C45.0559 23.0622 43.5542 22.8611 42.5352 22.6734C41.5028 22.4857 40.5509 22.3382 40.4168 22.3382C40.1888 22.3382 40.1754 22.4723 40.2425 24.3762C40.2827 25.5025 40.2693 26.8299 40.2157 27.3394L40.1084 28.2377L35.8983 24.0276L31.6882 19.8175L33.2301 19.7237C35.3486 19.5896 38.4458 19.8443 41.8514 20.4209C45.5252 21.051 47.5632 21.0913 50.1107 20.555C53.1812 19.9114 57.6058 18.4097 58.6248 17.6588C59.2684 17.203 59.8717 16.1303 59.979 15.2722C60.1399 13.9046 59.3622 12.47 58.1421 11.8398C57.4717 11.4912 57.3108 11.4644 56.332 11.518C55.5678 11.5582 54.9912 11.6789 54.3342 11.947L53.4091 12.3091L50.5398 9.42635L47.6571 6.54364L48.0995 5.36374C48.8102 3.48663 48.6761 2.30673 47.6303 1.18046C46.7185 0.188271 45.2705 -0.240784 44.1174 0.134636ZM34.41 25.6232L39.6927 30.9059L39.5319 31.5361C39.1564 32.9305 37.7352 35.7462 37.4 35.7462C37.333 35.7462 34.3296 32.783 30.7228 29.1629L24.1529 22.593L24.4747 22.3248C25.3194 21.641 28.2021 20.3404 28.9128 20.327C29.02 20.327 31.5005 22.7136 34.41 25.6232ZM29.248 30.7986L35.8179 37.3685L35.4961 37.6367C34.6648 38.3205 31.7686 39.6345 31.0848 39.6345C30.9642 39.6345 28.4703 37.2479 25.5608 34.3383L20.278 29.0556L20.4389 28.4254C20.8143 27.031 22.2356 24.2153 22.5708 24.2153C22.6378 24.2153 25.6412 27.1785 29.248 30.7986Z" fill="#555555"/>
</svg>
