<svg width="30" height="30" viewBox="0 0 30 30" fill="none" xmlns="http://www.w3.org/2000/svg">
<path d="M14.1231 0.0183697C14.0058 0.0307217 13.6414 0.0739594 13.3202 0.111019C10.7013 0.407497 8.10094 1.44517 6.02559 3.00168C3.9626 4.55819 2.36903 6.46676 1.36224 8.5977C-0.218971 11.9578 -0.441329 16.2752 0.787819 19.9503C1.81314 23.0139 4.17261 25.9911 6.91503 27.6958C10.6642 30.0182 16.0194 30.6297 21.1089 29.3264C22.6284 28.9373 24.3022 28.332 24.8025 27.9923C25.3399 27.6279 25.6796 26.8805 25.587 26.269C25.5252 25.8737 25.2596 25.3919 24.9569 25.1263C24.364 24.6013 23.666 24.5581 22.6469 24.9843C18.4344 26.7323 13.9131 26.8681 10.4666 25.3611C7.68711 24.1443 5.37705 21.3092 4.54938 18.1097C4.24673 16.9423 4.16025 16.0776 4.19731 14.6199C4.2282 13.3105 4.29614 12.7978 4.58644 11.6922C5.53146 8.01709 8.55801 4.88555 12.1775 3.8417C13.9502 3.32904 16.0873 3.25492 17.9527 3.63169C20.9668 4.24318 23.7031 6.26911 24.9878 8.84476C25.3522 9.5736 25.5499 10.148 25.7414 11.0375C25.9328 11.9207 25.9514 13.9899 25.7784 14.8052C25.4511 16.3247 24.8519 17.4982 23.9069 18.4865C22.8816 19.5488 21.3992 19.9627 20.9854 19.3018C20.7877 18.9806 20.8248 18.19 21.1707 15.392C21.5104 12.6743 22.091 7.86885 22.091 7.81326C22.091 7.78856 21.2077 7.77003 20.133 7.77621L18.1688 7.79473L18.0638 8.19004C18.0082 8.40622 17.9465 8.59152 17.9341 8.61005C17.9156 8.6224 17.6932 8.49887 17.44 8.3321C16.1676 7.49826 14.6667 7.25737 13.1534 7.64032C11.004 8.18386 9.20655 9.87008 8.36036 12.1493C7.94035 13.2796 7.86005 13.8355 7.86005 15.5464C7.86005 17.1585 7.93417 17.7391 8.26771 18.7212C9.12008 21.2351 11.1213 23.0016 13.3202 23.1931C14.9199 23.3289 16.1305 22.9089 17.2547 21.828C17.5388 21.5563 17.7674 21.3648 17.7674 21.3957C17.7674 21.4327 17.9341 21.6427 18.1379 21.8651C18.9471 22.7483 19.9415 23.1436 21.3498 23.1436C22.8075 23.1436 24.2281 22.6804 25.4758 21.8033C26.0687 21.3895 27.2361 20.185 27.7241 19.4994C29.5029 16.9855 30.1329 13.6687 29.4721 10.3704C28.9965 8.03562 27.8723 6.00352 26.044 4.18141C23.7772 1.91459 21.0966 0.605148 17.7674 0.129549C17.1559 0.0430756 14.5864 -0.03722 14.1231 0.0183697ZM15.9267 11.6984C16.637 12.0381 17.1312 12.5816 17.44 13.366C17.5944 13.749 17.6068 13.8602 17.6068 14.6508C17.6068 15.8985 17.3906 16.6458 16.742 17.6217C16.3158 18.2641 15.8217 18.7212 15.2349 18.9991C14.8088 19.203 14.7285 19.2215 14.2158 19.2215C13.5796 19.2215 13.3202 19.1227 12.9434 18.715C12.6037 18.3506 12.4616 18.1159 12.2702 17.597C12.0169 16.8991 11.9366 16.2938 11.9799 15.3426C12.0354 13.9961 12.3628 13.0757 13.0669 12.3222C13.6599 11.6737 14.1726 11.4575 15.0002 11.4945C15.4326 11.5131 15.6055 11.5501 15.9267 11.6984Z" fill="#111111"/>
</svg>
