<svg width="29" height="28" viewBox="0 0 29 28" fill="none" xmlns="http://www.w3.org/2000/svg">
<path d="M12.8939 0.0327129C7.82387 0.672081 3.71845 3.53241 1.48628 7.98555C0.20754 10.5094 -0.27479 13.5716 0.151455 16.4319C0.925427 21.6366 4.59338 26.1234 9.50641 27.8508C10.0448 28.0415 10.1233 28.0415 10.4038 27.8957L10.7066 27.7162L10.7403 26.2019L10.7739 24.6876L9.45033 24.6764C7.3191 24.6652 6.70217 24.3287 5.87211 22.7247C5.36735 21.7488 5.09814 21.4011 4.212 20.6495C3.74089 20.2345 3.70724 20.0774 4.08861 19.9765C4.88502 19.7746 5.82725 20.3354 6.7246 21.5244C7.73413 22.8593 8.84461 23.2519 10.2355 22.7583C10.7515 22.5788 10.7964 22.5228 10.9871 21.9731C11.088 21.6366 11.2899 21.2216 11.4245 21.0533C11.7274 20.6383 11.7162 20.6046 11.3909 20.6046C10.258 20.6046 8.13794 19.7746 7.19572 18.9782C5.93941 17.8901 5.2664 16.1627 5.24396 13.9193C5.22153 12.2817 5.49074 11.3394 6.30958 10.2065C6.63487 9.74661 6.63487 9.72418 6.50026 9.15211C6.33201 8.46788 6.41053 7.07697 6.64608 6.41517C6.78069 6.03379 6.85921 5.96649 7.16207 5.93284C7.65561 5.87676 8.49689 6.1684 9.74197 6.81898L10.7964 7.36861L11.7049 7.17793C12.9612 6.90872 15.7431 6.90872 17.0218 7.17793L17.9416 7.37983L18.6258 6.97602C19.7475 6.32544 20.6224 5.98893 21.3067 5.97771L21.9236 5.96649L22.1143 6.6956C22.3386 7.5593 22.3611 8.53518 22.1928 9.23063C22.0694 9.71296 22.0806 9.75783 22.3947 10.2065C23.2136 11.3506 23.4828 12.2817 23.4603 13.9418C23.4491 15.2766 23.3257 15.8599 22.8546 17.0713C22.3723 18.2827 21.531 19.1464 20.185 19.797C19.2988 20.2233 17.9528 20.6046 17.3134 20.6046C16.9769 20.6046 16.9769 20.6159 17.3246 21.1206C17.7845 21.8049 17.8518 22.2311 17.9304 25.0129C17.9977 27.4919 18.0089 27.705 18.2108 27.8508C18.5361 28.0864 18.7492 28.0527 19.826 27.604C24.2567 25.7757 27.476 21.8497 28.4519 17.105C28.7211 15.8038 28.7211 12.8201 28.4519 11.5525C27.2405 5.84311 22.9556 1.50214 17.3246 0.290705C16.3376 0.0775814 13.7352 -0.0682392 12.8939 0.0327129Z" fill="#111111"/>
</svg>
