<svg width="30" height="30" viewBox="0 0 30 30" fill="none" xmlns="http://www.w3.org/2000/svg">
<path d="M8.69422 0.0617733C5.53781 0.237923 3.35369 1.25958 1.79662 3.28882C1.07093 4.23297 0.479098 5.6633 0.246595 7.04431C0.0422734 8.21393 0 9.77109 0 14.9921C0 21.6717 0.0634101 22.7215 0.598873 24.3562C1.40911 26.8223 3.1705 28.5838 5.63645 29.394C7.27102 29.9295 8.31376 29.993 14.9648 30C21.4256 30 22.5176 29.9366 24.124 29.4716C26.287 28.8445 27.9991 27.4212 28.9573 25.4554C29.5561 24.2153 29.8239 23.0316 29.9366 21.1221C30.0211 19.6425 30.0211 10.3136 29.9366 8.84102C29.8591 7.46002 29.7111 6.57223 29.4011 5.62807C28.7318 3.58475 27.365 1.97827 25.512 1.04821C24.3636 0.470438 23.0108 0.160416 21.1508 0.0547276C19.8473 -0.0227776 10.0329 -0.0157318 8.69422 0.0617733ZM20.3194 2.73219C23.2433 2.85901 24.3706 3.21836 25.5683 4.42321C26.7731 5.62103 27.1325 6.74838 27.2593 9.67244C27.4072 13.132 27.3156 20.9882 27.1113 22.334C26.9 23.708 26.4209 24.7085 25.5683 25.5611C24.3706 26.7659 23.2433 27.1253 20.3194 27.2521C18.3185 27.3366 11.6815 27.3366 9.6806 27.2521C6.75669 27.1253 5.6294 26.7659 4.43166 25.5611C3.22687 24.3632 2.86754 23.2359 2.74072 20.3118C2.65618 18.3108 2.65618 11.6735 2.74072 9.67244C2.86754 6.74838 3.22687 5.62103 4.43166 4.42321C5.59418 3.26063 6.81306 2.84492 9.43401 2.73923C11.287 2.65468 18.551 2.65468 20.3194 2.73219Z" fill="#111111"/>
<path d="M22.2006 5.38143C21.1014 5.93101 20.8971 7.49521 21.813 8.30549C22.1794 8.62256 22.5106 8.74234 23.0319 8.74939C23.7788 8.74939 24.3917 8.34072 24.6876 7.64318C24.8356 7.28383 24.8215 6.57219 24.6595 6.21989C24.4974 5.8676 24.0676 5.45189 23.7224 5.30392C23.2997 5.13482 22.6303 5.163 22.2006 5.38143Z" fill="#111111"/>
<path d="M14.2602 7.31913C12.4354 7.48118 10.9136 8.21396 9.53969 9.59497C8.00376 11.1451 7.31329 12.815 7.31329 14.9922C7.31329 16.5211 7.63034 17.6767 8.39831 18.9802C8.8915 19.8186 10.0752 21.0235 10.9065 21.5308C13.457 23.088 16.543 23.088 19.0935 21.5308C19.8896 21.0446 21.0521 19.8821 21.5383 19.0859C23.0954 16.5352 23.0954 13.4491 21.5383 10.8985C21.024 10.06 19.8262 8.88333 18.9878 8.39011C17.5223 7.52346 15.9652 7.17821 14.2602 7.31913ZM16.5148 10.2291C17.3039 10.4828 17.9098 10.8562 18.5228 11.4692C19.1357 12.0822 19.5021 12.6811 19.7698 13.4773C19.9389 13.9775 19.9601 14.1467 19.9601 14.9922C19.9601 15.8377 19.9389 16.0068 19.7698 16.507C19.5021 17.3032 19.1357 17.9021 18.5228 18.5151C17.9098 19.1281 17.3109 19.4945 16.5148 19.7623C16.0146 19.9314 15.8455 19.9525 15 19.9525C14.1545 19.9525 13.9854 19.9314 13.4852 19.7623C12.6891 19.4945 12.0902 19.1281 11.4772 18.5151C10.8643 17.9021 10.4979 17.3032 10.2302 16.507C10.0611 16.0068 10.0399 15.8377 10.0399 14.9922C10.0399 14.1467 10.0611 13.9775 10.2302 13.4773C10.8079 11.744 12.1747 10.5039 13.9784 10.0882C14.6336 9.94022 15.8173 10.0036 16.5148 10.2291Z" fill="#111111"/>
</svg>
