<svg width="60" height="60" viewBox="0 0 60 60" fill="none" xmlns="http://www.w3.org/2000/svg">
<path d="M22.9102 3.74998C19.5352 4.11327 15.9609 5.17967 13.2422 6.64452C11.9414 7.34764 10.0781 8.55467 10.0781 8.68358C10.0781 8.76561 11.5078 10.8164 12.0117 11.4609C12.0352 11.4844 12.4922 11.2031 13.043 10.8515C20.6016 5.91795 30.3398 5.92967 37.957 10.8633C38.4961 11.2148 38.9414 11.4844 38.9648 11.4609C39.4688 10.8164 40.8984 8.76561 40.8984 8.68358C40.8984 8.62498 40.4062 8.2617 39.8203 7.87498C36.6914 5.85936 33.4805 4.61717 29.707 3.97264C28.1133 3.70311 24.4453 3.58592 22.9102 3.74998Z" fill="#555555"/>
<path d="M23.2031 10.793C20.9766 11.0742 18.8789 11.707 16.9453 12.6797C15.75 13.2656 14.1797 14.2383 14.1797 14.3672C14.1797 14.4961 16.1016 17.1094 16.1953 17.1094C16.2422 17.1094 16.5586 16.9336 16.8984 16.7109C17.8945 16.0781 19.3828 15.375 20.4844 15C22.3125 14.3906 23.3086 14.2383 25.4883 14.2383C27.668 14.2383 28.6641 14.3906 30.4922 15C31.5938 15.375 33.082 16.0781 34.0781 16.7109C34.418 16.9336 34.7344 17.1094 34.7812 17.1094C34.8281 17.1094 35.3086 16.4883 35.8477 15.7383L36.8438 14.3789L36.5508 14.1563C36.0703 13.7578 34.207 12.7031 33.2812 12.3047C30.1406 10.9336 26.4141 10.3828 23.2031 10.793Z" fill="#555555"/>
<path d="M0 30V44.1797L4.01953 44.1562L8.02734 44.1211V30V15.8789L4.01953 15.8438L0 15.8203V30Z" fill="#555555"/>
<path d="M41.918 15.9023C41.8711 15.9375 41.8359 17.7656 41.8359 19.9453V23.9062H44.3555H46.875L46.8984 34.0078L46.9336 44.1211H50.918H54.9023L54.9375 34.0078L54.9609 23.9062H57.4805H60V19.8633V15.8203H51C46.043 15.8203 41.9531 15.8555 41.918 15.9023Z" fill="#555555"/>
<path d="M23.7305 18.0117C20.6016 18.5039 17.6602 20.2734 15.7969 22.7812C12.6094 27.0703 12.6094 32.9297 15.7969 37.2187C17.0156 38.8594 18.4688 40.043 20.4375 40.9687C22.2305 41.8125 23.168 42 25.4883 42C27.1758 42 27.6211 41.9648 28.4297 41.7422C31.2305 40.9805 33.4688 39.4922 35.1563 37.2422C37.8633 33.6562 38.332 28.8398 36.3867 24.7734C34.8281 21.5273 31.9688 19.1953 28.4297 18.2578C27.7148 18.0703 27.0586 18 25.7813 17.9766C24.8438 17.9648 23.9297 17.9766 23.7305 18.0117ZM27.2813 26.4141C28.1016 26.8242 28.7227 27.4687 29.1328 28.3125C29.4258 28.9102 29.4727 29.1328 29.4727 30C29.4727 30.8672 29.4258 31.0898 29.1328 31.6875C28.7227 32.5312 28.1016 33.1641 27.2813 33.5977C26.7188 33.8906 26.543 33.9258 25.4883 33.9258C24.4336 33.9258 24.2578 33.8906 23.6953 33.5977C22.875 33.1641 22.1953 32.4609 21.8203 31.6523C21.375 30.7031 21.375 29.2969 21.8203 28.3477C22.2891 27.3164 23.2383 26.4844 24.375 26.1211C24.5391 26.0625 25.1133 26.0391 25.6641 26.0625C26.4727 26.0859 26.7773 26.1562 27.2813 26.4141Z" fill="#555555"/>
<path d="M15.1523 44.2266C14.6133 44.9531 14.1797 45.5859 14.1797 45.6328C14.1797 45.7617 15.75 46.7344 16.9453 47.3203C18.4805 48.0937 19.875 48.5742 21.668 48.9492C22.9688 49.2187 23.4141 49.2656 25.4297 49.2656C27.8672 49.2656 28.7695 49.1484 30.8789 48.5625C32.7188 48.0469 35.4727 46.7227 36.5508 45.8437L36.8438 45.6211L35.8477 44.2617C35.3086 43.5117 34.8281 42.8906 34.7812 42.8906C34.7344 42.8906 34.418 43.0664 34.0781 43.2891C32.4727 44.3086 30.6562 45.0469 28.6992 45.4922C26.9414 45.8789 24.0352 45.8789 22.2773 45.4922C20.3203 45.0469 18.5039 44.3086 16.8984 43.2891C16.5586 43.0664 16.2422 42.8906 16.1953 42.8906C16.1484 42.8906 15.6797 43.5 15.1523 44.2266Z" fill="#555555"/>
<path d="M11.0508 49.8633C10.5117 50.6016 10.0781 51.2578 10.0781 51.3164C10.0781 51.457 12.0117 52.6875 13.3594 53.4141C15.6562 54.6328 18.6562 55.6055 21.6211 56.0859C23.4258 56.3906 27.5508 56.3906 29.3555 56.0859C32.2617 55.6172 35.0156 54.7266 37.418 53.5078C38.7539 52.8281 40.8984 51.4805 40.8984 51.3164C40.8984 51.2344 39.4688 49.1836 38.9648 48.5391C38.9414 48.5156 38.4961 48.7852 37.957 49.1367C36.5273 50.0625 35.3906 50.6484 33.8672 51.2578C27.0469 53.9531 19.1836 53.1562 13.0547 49.1602C12.5039 48.8086 12.0469 48.5156 12.0352 48.5156C12.0234 48.5273 11.5781 49.125 11.0508 49.8633Z" fill="#555555"/>
</svg>
