<svg width="30" height="30" viewBox="0 0 30 30" fill="none" xmlns="http://www.w3.org/2000/svg">
<path d="M4.08755 0.0100117C3.82396 0.036705 3.28675 0.166836 2.98979 0.273609C1.70517 0.737406 0.657457 1.82182 0.227027 3.12313C-0.0132132 3.84385 0.000133467 3.60694 0.000133467 7.64431V11.2813L0.0768769 11.4715C0.176977 11.7217 0.397197 11.962 0.657457 12.1021C0.860994 12.2122 0.881014 12.2155 1.2347 12.2155C1.58839 12.2155 1.60841 12.2122 1.81195 12.1021C2.07221 11.962 2.29243 11.7217 2.39253 11.4715L2.46927 11.2813L2.48595 7.72773C2.50264 4.38772 2.50597 4.16417 2.56603 3.99066C2.81962 3.23324 3.40354 2.69603 4.14094 2.53921C4.48796 2.4658 25.5056 2.4658 25.8593 2.53921C26.5867 2.69269 27.1773 3.23657 27.4309 3.99066C27.491 4.1675 27.4943 4.44111 27.511 10.3637L27.5277 16.5532L27.6311 16.7734C27.7612 17.047 27.9648 17.2472 28.245 17.3841C28.4386 17.4775 28.4953 17.4875 28.7622 17.4875C29.0292 17.4875 29.0859 17.4741 29.2861 17.3807C29.5597 17.2506 29.7599 17.0537 29.8934 16.7701L29.9968 16.5532V10.2803V4.00734L29.9201 3.65699C29.7132 2.7294 29.2794 1.93861 28.6288 1.30464C28.0048 0.694029 27.3241 0.32366 26.4099 0.0934296L26.0595 0.00333977L15.1319 1.90735e-06C9.12259 1.90735e-06 4.15095 0.00333977 4.08755 0.0100117Z" fill="#111111"/>
<path d="M7.46092 5.87589C7.03717 5.96931 6.55001 6.26961 6.28642 6.59994C5.62242 7.43745 5.68582 8.61863 6.44324 9.38273C7.24738 10.1935 8.57537 10.1935 9.37617 9.37939C10.3872 8.35503 10.1069 6.68002 8.81561 6.04272C8.39853 5.83918 7.91805 5.77912 7.46092 5.87589Z" fill="#111111"/>
<path d="M6.32646 11.7217C6.24638 11.7517 6.12626 11.8285 6.05619 11.8985C5.80594 12.1488 5.82262 11.695 5.82262 17.9212C5.82262 24.1475 5.80594 23.6937 6.05619 23.9439C6.28308 24.1708 6.32979 24.1775 7.89135 24.1775C9.4696 24.1775 9.533 24.1708 9.75655 23.9473C10.0101 23.6937 9.99346 24.1508 9.99346 17.9379C9.99346 11.725 10.0101 12.1488 9.75989 11.8985C9.533 11.6717 9.47294 11.665 7.87801 11.6683C6.70016 11.6683 6.44991 11.6783 6.32646 11.7217Z" fill="#111111"/>
<path d="M12.1856 11.7184C12.0889 11.7484 11.9754 11.8185 11.8987 11.8952C11.6451 12.1488 11.6618 11.6883 11.6618 17.9212C11.6618 24.1475 11.6451 23.6937 11.8954 23.9439C12.1223 24.1708 12.169 24.1775 13.7305 24.1775C15.3088 24.1775 15.3722 24.1708 15.5957 23.9473C15.846 23.697 15.8326 23.8905 15.8326 20.1835C15.8326 16.4898 15.826 16.6299 16.0629 16.1361C16.2297 15.7858 16.6201 15.3987 16.9671 15.2285C17.7612 14.8448 18.6922 14.9683 19.3161 15.5389C19.5797 15.7824 19.7465 16.026 19.88 16.3797L19.9868 16.6533L20.0035 20.1234L20.0201 23.5936L20.1002 23.7537C20.1403 23.8405 20.227 23.9506 20.2904 23.9973C20.514 24.1675 20.6041 24.1775 22.1056 24.1775C23.6671 24.1775 23.7138 24.1708 23.9407 23.9439C24.191 23.6937 24.1776 23.9306 24.1643 19.7531L24.1543 16.0193L24.0775 15.6857C23.844 14.6546 23.4169 13.8739 22.6928 13.1465C21.7686 12.2255 20.6675 11.735 19.3762 11.675C18.1716 11.6216 17.0872 11.9886 15.9094 12.8528L15.8326 12.9062V12.6426C15.8326 12.2856 15.7626 12.062 15.5991 11.8985C15.3722 11.6717 15.3121 11.665 13.7339 11.6683C12.6094 11.6683 12.3158 11.6783 12.1856 11.7184Z" fill="#111111"/>
<path d="M0.894365 14.5479C0.540678 14.6613 0.260398 14.9049 0.103574 15.2352L0.000137329 15.4521V20.7407V26.0294L0.0902274 26.3997C0.523995 28.2216 1.83864 29.5162 3.65379 29.9233L4.00414 30H14.9985H25.9928L26.3431 29.9233C27.6611 29.6263 28.6855 28.8956 29.3695 27.7578C29.5964 27.3807 29.7899 26.8869 29.9067 26.3997L29.9968 26.0294V23.5769V21.1245L29.8934 20.9076C29.7632 20.634 29.5564 20.4271 29.2794 20.2936C29.0859 20.2002 29.0292 20.1902 28.7622 20.1902C28.5053 20.1902 28.4319 20.2069 28.2584 20.2836C28.0015 20.4037 27.7445 20.6607 27.6211 20.9243L27.5277 21.1245L27.511 23.4768C27.4943 25.6356 27.4876 25.8458 27.4309 26.0127C27.184 26.7601 26.5867 27.3106 25.856 27.4641C25.509 27.5375 4.48796 27.5375 4.14094 27.4641C3.40688 27.3073 2.81962 26.7701 2.56604 26.0127C2.50598 25.8392 2.50264 25.5822 2.48596 20.6406L2.46927 15.4521L2.36584 15.2352C2.15563 14.7981 1.75856 14.5312 1.28809 14.5112C1.13461 14.5045 0.977782 14.5212 0.894365 14.5479Z" fill="#111111"/>
</svg>
