<svg width="60" height="60" viewBox="0 0 60 60" fill="none" xmlns="http://www.w3.org/2000/svg">
<g clip-path="url(#clip0_54_52)">
<path d="M50.625 0.128906C48.6328 0.28125 45.457 0.75 43.5703 1.17188C39.9844 1.98047 37.3242 2.90625 34.1602 4.45312C26.7539 8.0625 19.4063 15.2109 15.0117 23.0742L14.3906 24.1758L25.1016 34.8867L35.8125 45.5977L37.1836 44.8359C44.8125 40.5586 51.9609 33.1758 55.5469 25.8398C57.2109 22.4531 58.2188 19.4414 59.0156 15.5039C59.6953 12.1055 59.918 9.80859 59.9297 5.91797L59.9414 2.51953L59.6133 1.85156C59.25 1.10156 58.793 0.667969 58.0078 0.304688C57.5273 0.09375 57.2109 0.0703125 54.7852 0.046875C53.3086 0.0351562 51.4336 0.0703125 50.625 0.128906ZM43.2422 10.3945C46.3711 11.1562 48.8789 13.6875 49.6523 16.8516C49.9453 18.0469 49.9102 19.9805 49.582 21.1406C48.75 24.1055 46.5352 26.4023 43.6523 27.3047C42.3867 27.7031 40.418 27.7617 39.1406 27.4336C37.3828 26.9883 35.8477 26.1211 34.7227 24.9375C30.7383 20.707 31.8867 13.8047 37.0195 11.1445C39 10.125 41.1094 9.86719 43.2422 10.3945Z" fill="#555555"/>
<path d="M39.9376 13.7812C38.0157 14.2383 36.5274 15.668 36.0352 17.5078C35.1681 20.707 37.4415 23.9062 40.7227 24.1172C43.5118 24.2812 45.8204 22.4531 46.3126 19.6875C46.7813 17.0039 44.7891 14.2265 42.0235 13.7226C41.1446 13.5586 40.7813 13.5703 39.9376 13.7812Z" fill="#555555"/>
<path d="M12.375 16.4062C9.66797 16.6289 9.04688 16.7461 8.29688 17.1211C7.32422 17.625 6.78516 18.293 3.66797 23.0156C1.95703 25.5937 0.457031 27.9141 0.316406 28.1719C0.128906 28.5352 0.0585938 28.8633 0.0585938 29.5312C0.0585938 30.293 0.105469 30.4922 0.398438 31.0312C0.808594 31.7578 1.41797 32.2852 2.13281 32.5195C2.53125 32.6602 6.96094 33.3984 7.35938 33.3984C7.41797 33.3984 7.64062 32.6719 7.85156 31.7812C9.01172 26.9297 11.0859 22.3242 14.2031 17.7305C15.3164 16.0898 15.2695 16.1719 15.0938 16.1836C15.0117 16.1953 13.793 16.3008 12.375 16.4062Z" fill="#555555"/>
<path d="M12.3866 28.8164C11.4843 31.3242 10.7108 34.6641 10.8163 35.5781C10.9335 36.6211 11.1561 36.8906 17.2499 42.9726C22.9921 48.6914 23.1679 48.8437 23.8241 49.0547C24.4335 49.2422 24.6093 49.2539 25.5116 49.1133C26.871 48.9258 29.2968 48.293 30.9257 47.707C31.664 47.4375 32.2968 47.2031 32.3319 47.168C32.3905 47.0976 13.0077 27.6562 12.8788 27.6562C12.8319 27.6562 12.6093 28.1719 12.3866 28.8164Z" fill="#555555"/>
<path d="M6.85541 40.3242C6.72651 40.3945 5.17963 41.8828 3.42182 43.6406C-0.0469302 47.0977 -0.14068 47.2148 0.117132 48.1523C0.269476 48.7148 0.89057 49.2891 1.45307 49.3945C2.34369 49.5703 2.44916 49.4883 5.78901 46.1836C7.52338 44.4727 8.99994 42.9023 9.09369 42.6914C9.48041 41.8008 9.14057 40.8164 8.32026 40.4062C7.86322 40.1719 7.20697 40.1367 6.85541 40.3242Z" fill="#555555"/>
<path d="M42.4805 45.668C37.7109 48.9141 32.8477 51.0938 27.75 52.2656C27.1172 52.4062 26.6016 52.582 26.6016 52.6406C26.6016 53.0391 27.3398 57.457 27.4805 57.8672C27.7148 58.582 28.2422 59.1914 28.9688 59.6016C29.5078 59.8945 29.707 59.9414 30.4688 59.9414C31.1367 59.9414 31.4648 59.8711 31.8281 59.6836C32.0977 59.543 34.418 58.0312 36.9844 56.332C42.3984 52.7578 42.7969 52.3945 43.2305 50.7773C43.3359 50.3789 43.8398 44.8828 43.7813 44.8008C43.7695 44.7891 43.1836 45.1758 42.4805 45.668Z" fill="#555555"/>
<path d="M12.0117 45.6562C11.5078 45.914 0.492188 56.9297 0.222656 57.4453C0.105469 57.6914 0 58.0429 0 58.2422C0 58.8281 0.410156 59.4961 0.9375 59.7656C1.51172 60.0586 1.99219 60.0586 2.55469 59.7773C2.78906 59.6484 5.55469 56.9765 8.69531 53.8242C14.8477 47.6601 14.6719 47.8594 14.4844 46.8281C14.2852 45.75 12.9961 45.1406 12.0117 45.6562Z" fill="#555555"/>
<path d="M17.1681 50.9648C16.9806 51.082 15.4337 52.5703 13.7462 54.2695C11.1563 56.8945 10.6759 57.4336 10.6056 57.7969C10.3595 59.0977 11.5079 60.2227 12.7384 59.8945C13.3712 59.7187 19.6173 53.4609 19.7462 52.875C19.9102 52.0664 19.5587 51.2812 18.8673 50.918C18.3985 50.6719 17.5899 50.6953 17.1681 50.9648Z" fill="#555555"/>
</g>
<defs>
<clipPath id="clip0_54_52">
<rect width="60" height="60" fill="white"/>
</clipPath>
</defs>
</svg>
