<svg width="60" height="60" viewBox="0 0 60 60" fill="none" xmlns="http://www.w3.org/2000/svg">
<g clip-path="url(#clip0_54_39)">
<path d="M18.75 2.80078V5.60156L16.0898 5.66016C13.3242 5.70703 12.9727 5.75391 11.4609 6.32812C10.5469 6.66797 9.1875 7.57031 8.37891 8.37891C7.57031 9.1875 6.66797 10.5469 6.32812 11.4609C5.75391 12.9727 5.70703 13.3242 5.66016 16.0781L5.60156 18.75H2.80078H0V20.625V22.5H2.8125H5.625V25.3125V28.125H2.8125H0V30V31.875H2.8125H5.625V34.6875V37.5H2.8125H0V39.375V41.25H2.80078H5.60156L5.66016 43.9102C5.70703 46.6758 5.75391 47.0273 6.32812 48.5391C6.66797 49.4531 7.57031 50.8125 8.37891 51.6211C9.1875 52.4297 10.5469 53.332 11.4609 53.6719C12.9727 54.2461 13.3242 54.293 16.0898 54.3398L18.75 54.3984V57.1992V60H20.625H22.5V57.1875V54.375H25.3125H28.125V57.1875V60H30H31.875V57.1875V54.375H34.6875H37.5V57.1875V60H39.375H41.25V57.1992V54.3984L43.9219 54.3398C46.6758 54.293 47.0273 54.2461 48.5391 53.6719C49.4531 53.332 50.8125 52.4297 51.6211 51.6211C52.4297 50.8125 53.332 49.4531 53.6719 48.5391C54.2461 47.0273 54.293 46.6758 54.3398 43.9219L54.3984 41.25H57.1992H60V39.375V37.5H57.1875H54.375V34.6875V31.875H57.1875H60V30V28.125H57.1875H54.375V25.3125V22.5H57.1875H60V20.625V18.75H57.1992H54.3984L54.3398 16.0781C54.293 13.3242 54.2461 12.9727 53.6719 11.4609C53.332 10.5469 52.4297 9.1875 51.6211 8.37891C50.8125 7.57031 49.4531 6.66797 48.5391 6.32812C47.0273 5.75391 46.6758 5.70703 43.9219 5.66016L41.25 5.60156V2.80078V0H39.375H37.5V2.8125V5.625H34.6875H31.875V2.8125V0H30H28.125V2.8125V5.625H25.3125H22.5V2.8125V0H20.625H18.75V2.80078ZM31.875 19.8047C33.9727 20.0625 36.1992 20.8125 37.9336 21.8438C39.3516 22.6758 40.1602 23.3203 41.332 24.5039C42.4805 25.6875 46.1719 29.8711 46.1719 30C46.1719 30.1758 41.6484 35.2148 40.6758 36.1172C36.8438 39.7266 31.3125 41.1211 26.1094 39.7969C23.2266 39.0703 20.7656 37.6406 18.668 35.4961C17.5078 34.3008 13.8281 30.1289 13.8281 30C13.8281 29.8711 17.5078 25.6992 18.668 24.5039C22.1367 20.9531 27.0234 19.2188 31.875 19.8047Z" fill="#555555"/>
<path d="M28.6523 23.5781C27.5977 23.7773 26.2617 24.5156 25.3828 25.3828C22.8047 27.9609 22.8047 32.0391 25.3828 34.6172C28.5703 37.793 33.9141 36.9023 35.8711 32.8594C38.2383 27.9726 34.0312 22.5586 28.6523 23.5781Z" fill="#555555"/>
</g>
<defs>
<clipPath id="clip0_54_39">
<rect width="60" height="60" fill="white"/>
</clipPath>
</defs>
</svg>
